<svg width="120" height="141" viewBox="0 0 120 141" fill="none" xmlns="http://www.w3.org/2000/svg">
<path d="M59.9818 30.2775C65.9776 30.2775 71.6321 32.6173 75.873 36.8582C80.1383 41.1235 82.4537 46.7536 82.4781 52.7737V76.9517C82.4781 82.9475 80.1383 88.602 75.873 92.8672C71.6077 97.1325 65.9776 99.4479 59.9575 99.4723C58.1539 99.4723 56.3746 99.253 54.6442 98.8386L54.3761 98.7655L54.3761 84.9217L54.8879 85.2385C56.4234 86.1891 58.1782 86.6765 59.9331 86.6765C62.5166 86.6765 64.9783 85.6772 66.8306 83.8249C68.6586 81.9969 69.6823 79.5596 69.6823 76.9273L69.6823 52.7494C69.6823 50.1658 68.683 47.7042 66.8306 45.8518C65.0027 44.0239 62.5654 43.0002 59.9331 43.0002C57.3496 43.0002 54.8879 43.9995 53.0355 45.8518C51.1832 47.7042 50.1839 50.1171 50.1839 52.7494L50.1839 60.0613L49.9646 60.1344C45.1387 62.0842 41.0197 65.3746 38.0462 69.6642L37.4369 70.566V52.725C37.4856 46.778 39.8254 41.1235 44.0907 36.8582C48.3316 32.6173 53.9861 30.2775 59.9818 30.2775Z" fill="#00E7A7"/>
<path d="M65.2951 63.0348L65.5632 63.1079L65.5632 76.9517L65.0514 76.6349C63.5159 75.6843 61.7611 75.1969 60.0062 75.1969C54.6442 75.1969 50.2814 79.5596 50.2814 84.9217L50.2814 109.1C50.2814 111.683 51.2807 114.145 53.133 115.997C54.961 117.825 57.3983 118.849 60.0306 118.849C62.6141 118.849 65.0758 117.85 66.9281 115.997C68.7561 114.169 69.7798 111.732 69.7798 109.1L69.7798 101.788L69.9991 101.715C74.825 99.7648 78.944 96.4744 81.9175 92.1848L82.5268 91.283L82.5268 109.124C82.5268 115.12 80.187 120.774 75.9217 125.04C71.6565 129.305 66.0263 131.62 60.0062 131.645C54.0105 131.645 48.3559 129.305 44.0907 125.04C39.8254 120.774 37.4856 115.12 37.4856 109.124L37.4856 84.946C37.4856 78.9503 39.8254 73.2958 44.0907 69.0305C48.3559 64.7652 53.9861 62.4011 59.9818 62.4011C61.7611 62.4254 63.5646 62.6204 65.2951 63.0348Z" fill="#7C5CFF"/>
<circle cx="61.5338" cy="12.5" r="12.5" fill="#7C5CFF"/>
</svg>
